<svg width="544" height="360" viewBox="0 0 544 360" fill="none" xmlns="http://www.w3.org/2000/svg">
  <defs>
    <linearGradient id="smoke" x1="96" y1="40" x2="96" y2="200" gradientUnits="userSpaceOnUse">
      <stop stop-color="#E0E7FF" stop-opacity="0.8" />
      <stop offset="1" stop-color="#E0E7FF" stop-opacity="0" />
    </linearGradient>
    <linearGradient id="sky" x1="272" y1="0" x2="272" y2="360" gradientUnits="userSpaceOnUse">
      <stop stop-color="#EEF2FF" />
      <stop offset="1" stop-color="#C7D2FE" />
    </linearGradient>
    <linearGradient id="panel" x1="0" y1="0" x2="320" y2="220" gradientUnits="userSpaceOnUse">
      <stop stop-color="#4F46E5" stop-opacity="0.25" />
      <stop offset="1" stop-color="#6366F1" stop-opacity="0.05" />
    </linearGradient>
  </defs>
  <rect width="544" height="360" rx="24" fill="url(#sky)" />
  <g opacity="0.18">
    <rect x="40" y="64" width="104" height="24" rx="12" fill="#312E81" />
    <rect x="168" y="96" width="152" height="24" rx="12" fill="#312E81" />
    <rect x="352" y="56" width="112" height="24" rx="12" fill="#312E81" />
  </g>
  <g opacity="0.12">
    <circle cx="112" cy="88" r="48" fill="#4338CA" />
    <circle cx="424" cy="84" r="36" fill="#4338CA" />
    <circle cx="292" cy="60" r="26" fill="#4338CA" />
  </g>
  <g opacity="0.4">
    <path d="M96 144C96 128 116 112 132 112C148 112 160 128 160 144C160 160 120 176 120 176C120 176 96 160 96 144Z" fill="url(#smoke)" />
    <path d="M144 128C144 116 158 104 170 104C182 104 192 116 192 128C192 140 164 152 164 152C164 152 144 140 144 128Z" fill="url(#smoke)" />
  </g>
  <g filter="url(#shadow)">
    <rect x="64" y="160" width="416" height="176" rx="20" fill="white" />
  </g>
  <rect x="64" y="160" width="416" height="176" rx="20" fill="url(#panel)" />
  <rect x="96" y="192" width="352" height="112" rx="16" fill="#1E1B4B" opacity="0.2" />
  <rect x="96" y="192" width="148" height="112" rx="16" fill="#4338CA" opacity="0.85" />
  <rect x="260" y="212" width="168" height="18" rx="9" fill="#312E81" opacity="0.85" />
  <rect x="260" y="244" width="136" height="12" rx="6" fill="#4338CA" opacity="0.7" />
  <rect x="260" y="268" width="176" height="12" rx="6" fill="#4338CA" opacity="0.45" />
  <rect x="260" y="292" width="152" height="12" rx="6" fill="#4338CA" opacity="0.3" />
  <rect x="108" y="208" width="44" height="72" rx="8" fill="#EEF2FF" opacity="0.9" />
  <rect x="160" y="208" width="60" height="96" rx="8" fill="#C7D2FE" opacity="0.85" />
  <path d="M84 304H460L424 276H120L84 304Z" fill="#6366F1" opacity="0.45" />
  <path d="M132 240L172 208L212 240V284H132V240Z" fill="#312E81" opacity="0.6" />
  <path d="M196 208V196L236 168L276 196V208H196Z" fill="#312E81" opacity="0.45" />
  <circle cx="140" cy="320" r="10" fill="#1E1B4B" opacity="0.65" />
  <circle cx="404" cy="320" r="10" fill="#1E1B4B" opacity="0.65" />
  <g opacity="0.22">
    <rect x="320" y="320" width="36" height="4" rx="2" fill="#1E1B4B" />
    <rect x="360" y="320" width="36" height="4" rx="2" fill="#4338CA" />
  </g>
  <path d="M236 168L256 104H296L316 168H236Z" fill="#4338CA" opacity="0.6" />
  <rect x="312" y="188" width="12" height="20" fill="#4338CA" opacity="0.6" />
  <rect x="292" y="188" width="12" height="20" fill="#4338CA" opacity="0.6" />
  <rect x="272" y="188" width="12" height="20" fill="#4338CA" opacity="0.6" />
  <path d="M260 168V120L280 108L300 120V168H260Z" fill="#312E81" opacity="0.45" />
  <rect x="208" y="188" width="20" height="20" fill="#4338CA" opacity="0.65" />
  <rect x="184" y="188" width="20" height="20" fill="#4338CA" opacity="0.5" />
  <rect x="160" y="188" width="20" height="20" fill="#4338CA" opacity="0.35" />
  <rect x="128" y="188" width="20" height="20" fill="#4338CA" opacity="0.2" />
  <g opacity="0.3">
    <rect x="96" y="316" width="352" height="2" fill="#312E81" />
    <rect x="96" y="324" width="352" height="2" fill="#312E81" />
  </g>
  <defs>
    <filter id="shadow" x="56" y="148" width="432" height="200" filterUnits="userSpaceOnUse" color-interpolation-filters="sRGB">
      <feFlood flood-opacity="0" result="BackgroundImageFix" />
      <feGaussianBlur in="BackgroundImageFix" stdDeviation="6" />
      <feComposite in2="SourceAlpha" operator="in" result="effect1_backgroundBlur" />
      <feBlend mode="normal" in="SourceGraphic" in2="effect1_backgroundBlur" result="shape" />
      <feGaussianBlur stdDeviation="10" result="effect2_foregroundBlur" />
      <feBlend mode="normal" in="shape" in2="effect2_foregroundBlur" result="effect3_innerShadow" />
    </filter>
  </defs>
</svg>
